<svg width="52" height="50" viewBox="0 0 52 50" fill="none" xmlns="http://www.w3.org/2000/svg">
<rect width="52" height="50" rx="11" fill="#FEE5CD"/>
<path d="M28.6639 20.8167H22.5966V40.6574H28.6639V20.8167Z" fill="#F87F06"/>
<path d="M28.6646 20.8167H25.4731V40.6574H28.6646V20.8167Z" fill="#F87F06"/>
<path d="M37.7252 41H13.6062C13.0386 41 12.5784 40.5398 12.5784 39.9722C12.5784 39.4046 13.0386 38.9445 13.6062 38.9445H37.7252C38.2929 38.9445 38.753 39.4047 38.753 39.9722C38.753 40.5398 38.2929 41 37.7252 41Z" fill="#F87F06"/>
<path d="M17.9824 23.9874H15.9268V30.737H17.9824V23.9874Z" fill="#F87F06"/>
<path d="M17.9823 23.9874H16.9139V30.737H17.9823V23.9874Z" fill="#F87F06"/>
<path d="M35.3181 23.8159H33.2625V30.5656H35.3181V23.8159Z" fill="#F87F06"/>
<path d="M35.3179 23.8159H34.2161V30.5656H35.3179V23.8159Z" fill="#F87F06"/>
<path d="M28.9833 12.0682C29.0197 12.1288 29.0208 12.2043 28.9859 12.2658C28.951 12.3273 28.8859 12.3654 28.8151 12.3654H25.4366V10.0856H28.8151C28.8859 10.0856 28.9511 10.1237 28.9859 10.1853C29.0207 10.2468 29.0197 10.3223 28.9833 10.3829L28.4763 11.2256L28.9833 12.0682Z" fill="#F87F06"/>
<path d="M17.0458 24.8231C18.213 24.8231 19.1593 23.8768 19.1593 22.7095C19.1593 21.5422 18.213 20.5959 17.0458 20.5959C15.8785 20.5959 14.9322 21.5422 14.9322 22.7095C14.9322 23.8768 15.8785 24.8231 17.0458 24.8231Z" fill="#F87F06"/>
<path d="M33.9544 24.8231C35.1217 24.8231 36.068 23.8768 36.068 22.7095C36.068 21.5422 35.1217 20.5959 33.9544 20.5959C32.7872 20.5959 31.8409 21.5422 31.8409 22.7095C31.8409 23.8768 32.7872 24.8231 33.9544 24.8231Z" fill="#F87F06"/>
<path d="M25.5 12.8304L10.7048 22.7096H40.2953L25.5 12.8304Z" fill="#F87F06"/>
<path d="M14.932 22.7096C14.932 23.8769 13.9857 24.8232 12.8185 24.8232C11.6512 24.8232 10.7049 23.8769 10.7049 22.7096H14.932Z" fill="#F87F06"/>
<path d="M21.273 24.8231C22.4403 24.8231 23.3865 23.8768 23.3865 22.7095C23.3865 21.5422 22.4403 20.5959 21.273 20.5959C20.1057 20.5959 19.1594 21.5422 19.1594 22.7095C19.1594 23.8768 20.1057 24.8231 21.273 24.8231Z" fill="#F87F06"/>
<path d="M25.5001 24.8231C26.6674 24.8231 27.6137 23.8768 27.6137 22.7095C27.6137 21.5422 26.6674 20.5959 25.5001 20.5959C24.3328 20.5959 23.3865 21.5422 23.3865 22.7095C23.3865 23.8768 24.3328 24.8231 25.5001 24.8231Z" fill="#F87F06"/>
<path d="M29.7273 24.8231C30.8946 24.8231 31.8408 23.8768 31.8408 22.7095C31.8408 21.5422 30.8946 20.5959 29.7273 20.5959C28.56 20.5959 27.6137 21.5422 27.6137 22.7095C27.6137 23.8768 28.56 24.8231 29.7273 24.8231Z" fill="#F87F06"/>
<path d="M40.2952 22.7096C40.2952 23.8769 39.3489 24.8232 38.1817 24.8232C37.0144 24.8232 36.0681 23.8769 36.0681 22.7096H40.2952Z" fill="#F87F06"/>
<path d="M23.3864 22.7096L25.4999 12.8304L27.6136 22.7096H23.3864Z" fill="#F87F06"/>
<path d="M23.3864 22.7096H19.1592L25.4999 12.8304L23.3864 22.7096Z" fill="#F87F06"/>
<path d="M14.932 22.7096L25.4999 12.8304L19.1592 22.7096H14.932Z" fill="#F87F06"/>
<path d="M27.6136 22.7096L25.4999 12.8304L23.3864 22.7096H27.6136Z" fill="#F87F06"/>
<path d="M27.6136 22.7096H31.8408L25.4999 12.8304L27.6136 22.7096Z" fill="#F87F06"/>
<path d="M36.068 22.7096L25.4999 12.8304L31.8408 22.7096H36.068Z" fill="#F87F06"/>
<path d="M25.4367 14.7176C24.8371 14.7176 24.3511 14.2316 24.3511 13.6319V10.0856C24.3511 9.48606 24.8371 9 25.4367 9C26.0363 9 26.5223 9.486 26.5223 10.0856V13.632C26.5223 14.2316 26.0363 14.7176 25.4367 14.7176Z" fill="#F87F06"/>
<path d="M22.4318 14.8791C23.0938 15.8692 24.2216 16.5214 25.5021 16.5214C26.7817 16.5214 27.909 15.8701 28.5712 14.881L25.5001 12.8303L22.4318 14.8791Z" fill="#F87F06"/>
<path d="M25.4999 12.8304V16.5214C25.5006 16.5214 25.5013 16.5215 25.5019 16.5215C26.7816 16.5215 27.9089 15.8701 28.5711 14.8811L25.4999 12.8304Z" fill="#F87F06"/>
<path d="M37.7252 38.9444H25.4718V41H37.7252C38.2929 41 38.753 40.5398 38.753 39.9723C38.753 39.4046 38.2929 38.9444 37.7252 38.9444Z" fill="#F87F06"/>
<path d="M22.9755 31.4222C23.0583 31.347 23.1018 31.238 23.0937 31.1264C23.0662 30.7473 22.9969 29.8493 22.9227 29.3309C22.8777 29.0158 22.7042 28.5531 22.4189 28.3214C22.4118 28.3157 22.4042 28.3091 22.397 28.3032L22.3672 27.287C22.3657 27.2343 22.3315 27.1881 22.2816 27.1712C22.2316 27.1544 22.1764 27.1704 22.1433 27.2113L21.5178 27.9832C21.1353 27.988 20.6644 28.1497 20.2582 28.7317C18.424 31.3587 15.4735 29.4489 14.1886 30.9103C14.1819 30.9179 14.1746 30.9294 14.167 30.9427C13.7774 30.8151 13.4045 30.7395 12.9265 30.9201C12.3479 31.1371 12.2334 31.3834 11.139 32.8464C11.0987 32.9003 11.0825 32.9686 11.0943 33.0349C11.1061 33.1012 11.1447 33.1598 11.2012 33.1966L12.132 33.8012C12.1887 33.838 12.2581 33.8496 12.3236 33.8332C12.3891 33.8168 12.4449 33.7739 12.4776 33.7148C13.3886 32.0714 13.3167 32.1726 13.4241 32.1006C13.5121 32.0414 13.6076 32.0185 13.8162 32.0561C13.6958 32.5176 13.2415 35.6314 13.1034 36.5875C13.0933 36.6574 13.1141 36.7283 13.1604 36.7816C13.2066 36.835 13.2738 36.866 13.3444 36.866H13.7964C13.8842 36.866 13.9653 36.8187 14.0084 36.7421L15.3862 34.2973C15.5223 34.0559 15.7778 33.9067 16.0549 33.9067H18.6149C18.8924 33.9067 19.1482 34.0564 19.284 34.2982L20.6569 36.7419C20.7 36.8186 20.7812 36.8661 20.8692 36.8661H21.1963C21.2709 36.8661 21.3413 36.8319 21.3875 36.7733C21.4337 36.7148 21.4504 36.6383 21.4331 36.5658C21.2732 35.8971 20.8829 34.2695 20.6442 33.3172C20.5106 32.7847 20.5831 32.2216 20.8453 31.7392C20.9336 31.5768 21.0244 31.4097 21.1057 31.2602C21.1699 31.1422 21.287 31.0624 21.4202 31.0458C21.5535 31.0293 21.6865 31.078 21.7776 31.1767L22.202 31.6369C22.3374 31.7837 22.5658 31.7938 22.7136 31.6596L22.9755 31.4222Z" fill="#F87F06"/>
<path d="M40.099 31.4222C40.1818 31.347 40.2253 31.238 40.2172 31.1264C40.1897 30.7473 40.1204 29.8493 40.0463 29.3309C40.0012 29.0158 39.8277 28.5531 39.5424 28.3214C39.5353 28.3157 39.5278 28.3091 39.5205 28.3032L39.4908 27.287C39.4893 27.2343 39.455 27.1881 39.4051 27.1712C39.3551 27.1544 39.3 27.1704 39.2668 27.2113L38.6413 27.9832C38.2588 27.988 37.788 28.1497 37.3817 28.7317C35.5476 31.3587 32.597 29.4489 31.3121 30.9103C31.3055 30.9179 31.2981 30.9294 31.2905 30.9427C30.901 30.8151 30.528 30.7395 30.05 30.9201C29.4714 31.1371 29.3569 31.3834 28.2625 32.8464C28.2222 32.9003 28.206 32.9686 28.2178 33.0349C28.2296 33.1012 28.2683 33.1598 28.3247 33.1966L29.2556 33.8012C29.3122 33.838 29.3816 33.8496 29.4471 33.8332C29.5126 33.8168 29.5684 33.7739 29.6011 33.7148C30.5121 32.0714 30.4402 32.1726 30.5476 32.1006C30.6356 32.0414 30.7311 32.0185 30.9398 32.0561C30.8193 32.5176 30.3651 35.6314 30.227 36.5875C30.2168 36.6574 30.2376 36.7283 30.2839 36.7816C30.3301 36.835 30.3973 36.866 30.4679 36.866H30.9199C31.0078 36.866 31.0888 36.8187 31.132 36.7421L32.5098 34.2973C32.6458 34.0559 32.9013 33.9067 33.1784 33.9067H35.7385C36.0159 33.9067 36.2717 34.0564 36.4076 34.2982L37.7805 36.7419C37.8236 36.8186 37.9047 36.8661 37.9927 36.8661H38.3198C38.3944 36.8661 38.4648 36.8319 38.511 36.7733C38.5572 36.7148 38.574 36.6383 38.5566 36.5658C38.3968 35.8971 38.0064 34.2695 37.7677 33.3172C37.6341 32.7847 37.7066 32.2216 37.9689 31.7392C38.0572 31.5768 38.148 31.4097 38.2293 31.2602C38.2935 31.1422 38.4106 31.0624 38.5438 31.0458C38.6771 31.0293 38.8101 31.078 38.9012 31.1767L39.3256 31.6369C39.461 31.7837 39.6894 31.7938 39.8372 31.6596L40.099 31.4222Z" fill="#F87F06"/>
</svg>
