<svg width="52" height="50" viewBox="0 0 52 50" fill="none" xmlns="http://www.w3.org/2000/svg">
<rect width="52" height="50" rx="11" fill="#D6F0F5"/>
<path d="M38.4118 15.5496H31.4324L29.9686 12.5925C29.789 12.2296 29.419 12 29.0142 12H23.743C23.3381 12 22.9683 12.2296 22.7887 12.5925L21.3248 15.5496H12.5882C10.8854 15.5496 9.5 16.9349 9.5 18.6378V34.0755C9.5 35.7783 10.8854 37.1636 12.5882 37.1636H38.4118C40.1146 37.1636 41.5 35.7783 41.5 34.0755V18.6378C41.5 16.9349 40.1146 15.5496 38.4118 15.5496ZM24.404 14.1298H28.353L29.0558 15.5496H23.7012L24.404 14.1298ZM38.4118 17.6794C38.9403 17.6794 39.3703 18.1093 39.3703 18.6379V20.8209H35.4507C33.8293 19.3959 31.7071 18.5308 29.3871 18.5308C27.0669 18.5308 24.9446 19.3959 23.3232 20.8209H11.6298V18.6378C11.6298 18.1093 12.0597 17.6793 12.5883 17.6793H38.4118V17.6794ZM29.387 34.8774C25.4821 34.8774 22.3052 31.6885 22.3052 27.7689C22.3052 23.8493 25.482 20.6604 29.387 20.6604C33.2915 20.6604 36.4683 23.8493 36.4683 27.7689C36.4683 31.6885 33.2915 34.8774 29.387 34.8774ZM11.6298 34.0755V22.9506H21.5307C20.6716 24.3543 20.1755 26.0046 20.1755 27.7689C20.1755 30.7136 21.5565 33.341 23.7029 35.0339H12.5882C12.0597 35.0339 11.6298 34.604 11.6298 34.0755ZM38.4118 35.0339H35.0708C37.2173 33.341 38.598 30.7136 38.598 27.7689C38.598 26.0046 38.102 24.3544 37.243 22.9506H39.3702V34.0755C39.3702 34.604 38.9403 35.0339 38.4118 35.0339Z" fill="#33B3CC"/>
<path d="M29.387 22.3718C26.4189 22.3718 24.0043 24.7929 24.0043 27.7689C24.0043 30.7449 26.4189 33.166 29.387 33.166C32.3548 33.166 34.7693 30.7449 34.7693 27.7689C34.7693 24.7929 32.3548 22.3718 29.387 22.3718ZM29.387 31.0361C27.5932 31.0361 26.1341 29.5704 26.1341 27.7689C26.1341 25.9674 27.5932 24.5017 29.387 24.5017C31.1804 24.5017 32.6395 25.9674 32.6395 27.7689C32.6395 29.5704 31.1805 31.0361 29.387 31.0361Z" fill="#33B3CC"/>
</svg>
