<svg width="60" height="60" viewBox="0 0 60 60" fill="none" xmlns="http://www.w3.org/2000/svg">
<g clip-path="url(#clip0_15_170)">
<path d="M30.0001 0C13.4043 0 0 13.4043 0 30.0001C0 46.5959 13.4043 60.0001 30.0001 60.0001C46.5959 60.0001 60.0001 46.5959 60.0001 30.0001C60.0001 13.4043 46.5957 0 30.0001 0ZM30.0001 55.0213C16.2128 55.0213 4.97873 43.7872 4.97873 29.9999C4.97873 16.2127 16.2128 4.97873 30.0001 4.97873C43.7873 4.97873 55.0214 16.2128 55.0214 30.0001C55.0214 43.7873 43.7873 55.0213 30.0001 55.0213Z" fill="#BDBDBD"/>
<path d="M44.0426 16.0851C43.2766 15.3192 42.1277 15.0638 41.1065 15.5744L24.7661 23.617C24.2554 23.8723 23.8724 24.2553 23.6171 24.766L15.5746 40.9788C15.1916 42 15.3193 43.149 16.0852 43.9149C16.5959 44.4256 17.2342 44.6809 17.8724 44.6809C18.1277 44.6809 18.5107 44.5532 18.8937 44.4256L35.2341 36.383C35.7447 36.1277 36.1277 35.7448 36.383 35.2341L44.5533 19.0213C44.9362 18 44.8085 16.8511 44.0426 16.0851ZM32.1702 32.1703L23.234 36.6383L27.7021 27.7021L36.6383 23.234L32.1702 32.1703Z" fill="#BDBDBD"/>
</g>
<defs>
<clipPath id="clip0_15_170">
<rect width="60" height="60" fill="white"/>
</clipPath>
</defs>
</svg>
