<svg width="29" height="28" viewBox="0 0 29 28" fill ="none" xmlns="http://www.w3.org/2000/svg">
<path d="M11.1834 24.2333V20.6555C11.1834 19.7454 11.9253 19.006 12.8445 18.9999H16.2116C17.1352 18.9999 17.8839 19.7411 17.8839 20.6555V20.6555V24.2444C17.8837 25.0171 18.5067 25.6486 19.2869 25.6667H21.5316C23.7693 25.6667 25.5834 23.8708 25.5834 21.6555V21.6555V11.4775C25.5714 10.606 25.1581 9.78758 24.461 9.25522L16.784 3.13286C15.4391 2.06684 13.5273 2.06684 12.1823 3.13286L4.53905 9.26633C3.83932 9.79654 3.4253 10.6163 3.41669 11.4886V21.6555C3.41669 23.8708 5.23071 25.6667 7.46842 25.6667H9.71314C10.5128 25.6667 11.161 25.0249 11.161 24.2333V24.2333" stroke="currentColor" stroke-width="2" stroke-linecap="round" stroke-linejoin="round"/>
</svg>