<svg width="60" height="60" viewBox="0 0 60 60" fill="none" xmlns="http://www.w3.org/2000/svg">
<path d="M49.9497 32.3409C48.9613 32.3409 48.1603 33.1421 48.1603 34.1303V52.289H11.8421V34.1303C11.8421 33.1421 11.0412 32.3409 10.0527 32.3409C9.06425 32.3409 8.26331 33.1421 8.26331 34.1303V54.0784C8.26331 55.0667 9.06425 55.8679 10.0527 55.8679H49.9497C50.9382 55.8679 51.7391 55.0667 51.7391 54.0784V34.1303C51.7391 33.1421 50.938 32.3409 49.9497 32.3409Z" fill="black"/>
<path d="M59.4758 32.8651L31.2634 4.65605C30.5649 3.95722 29.4318 3.95746 28.733 4.65605L0.52418 32.8651C-0.174645 33.5639 -0.174645 34.697 0.52418 35.3956C0.873712 35.7448 1.3318 35.9197 1.78965 35.9197C2.24774 35.9197 2.7056 35.7451 3.05513 35.3956L29.9987 8.45175L56.9456 35.3956C57.6442 36.0944 58.7772 36.0941 59.4763 35.3953C60.1746 34.6967 60.1746 33.5637 59.4758 32.8651Z" fill="black"/>
</svg>
