<svg width="52" height="50" viewBox="0 0 52 50" fill="none" xmlns="http://www.w3.org/2000/svg">
<rect width="52" height="50" rx="11" fill="#E6CFFC"/>
<path d="M26.2669 18.1618C29.0686 18.1618 31.3479 15.8825 31.3479 13.0808C31.3479 10.2792 29.0686 8 26.2669 8C23.4653 8 21.186 10.2792 21.186 13.0808C21.186 15.8825 23.4653 18.1618 26.2669 18.1618ZM26.2669 9.03226C28.4994 9.03226 30.3156 10.8485 30.3156 13.0808C30.3156 15.3133 28.4994 17.1295 26.2669 17.1295C24.0345 17.1295 22.2183 15.3133 22.2183 13.0808C22.2183 10.8485 24.0345 9.03226 26.2669 9.03226Z" fill="#7F0DF1"/>
<path d="M32.5177 23.0011C32.8028 23.0011 33.0339 22.7701 33.0339 22.485V19.7103C33.0339 19.4252 32.8028 19.1942 32.5177 19.1942H20.0161C19.7311 19.1942 19.5 19.4252 19.5 19.7103V22.485C19.5 22.7701 19.7311 23.0011 20.0161 23.0011C20.6612 23.0011 21.186 23.5258 21.186 24.1709V25.5472C21.186 25.8323 21.4171 26.0633 21.7022 26.0633C21.9872 26.0633 22.2183 25.8323 22.2183 25.5472V24.1709C22.2183 23.1343 21.4983 22.2628 20.5323 22.03V20.2265H32.0015V22.03C31.0355 22.2628 30.3155 23.1344 30.3155 24.1709V35.0233C30.3155 36.0599 31.0355 36.9314 32.0015 37.1643V38.9677H20.5323V37.1644C21.4983 36.9314 22.2183 36.0599 22.2183 35.0233V27.6117C22.2183 27.3266 21.9872 27.0956 21.7022 27.0956C21.4171 27.0956 21.186 27.3266 21.186 27.6117V35.0233C21.186 35.6684 20.6612 36.1932 20.0161 36.1932C19.7311 36.1932 19.5 36.4242 19.5 36.7093V39.4839C19.5 39.769 19.7311 40 20.0161 40H32.5177C32.8027 40 33.0338 39.769 33.0338 39.4839V36.7094C33.0338 36.4243 32.8027 36.1932 32.5177 36.1932C31.8726 36.1932 31.3478 35.6684 31.3478 35.0233V24.1709C31.3478 23.5258 31.8726 23.0011 32.5177 23.0011Z" fill="#7F0DF1"/>
</svg>
