<svg width="60" height="60" viewBox="0 0 60 60" fill="none" xmlns="http://www.w3.org/2000/svg">
<path d="M0 14.8134V45.1866C0 49.3718 3.41424 52.786 7.59943 52.786H32.1477C36.3329 52.786 39.7471 49.3718 39.7471 45.1866V40.2672C39.7471 39.435 39.074 38.762 38.2419 38.762C37.4097 38.762 36.7367 39.435 36.7367 40.2672V45.1866C36.7367 47.7198 34.6686 49.7879 32.1354 49.7879H7.59943C5.06629 49.7879 2.99816 47.7198 2.99816 45.1866V14.8134C2.99816 12.2802 5.06629 10.2121 7.59943 10.2121H32.1477C34.6808 10.2121 36.7489 12.2802 36.7489 14.8134V19.7328C36.7489 20.5649 37.422 21.238 38.2541 21.238C39.0863 21.238 39.7593 20.5649 39.7593 19.7328V14.8134C39.7593 10.6282 36.3451 7.21393 32.1599 7.21393H7.59943C3.41424 7.21393 0 10.6159 0 14.8134Z" fill="#BDBDBD"/>
<path d="M47.163 41.3196C47.4567 41.6133 47.836 41.7601 48.2276 41.7601C48.6192 41.7601 48.9986 41.6133 49.2923 41.3196L59.5595 31.0524C60.1469 30.465 60.1469 29.5227 59.5595 28.9353L49.2923 18.6681C48.7049 18.0808 47.7626 18.0808 47.1752 18.6681C46.5878 19.2555 46.5878 20.1978 47.1752 20.7852L54.8848 28.4948H26.751C25.9188 28.4948 25.2458 29.1678 25.2458 30C25.2458 30.8321 25.9188 31.5052 26.751 31.5052H54.8725L47.163 39.2148C46.5756 39.7899 46.5756 40.7444 47.163 41.3196Z" fill="#BDBDBD"/>
</svg>
