<svg width="29" height="28" viewBox="0 0 29 28" fill="none" xmlns="http://www.w3.org/2000/svg">
<path d="M20.6581 9.65983C20.6596 9.65983 20.6614 9.65983 20.6629 9.65983C21.2989 9.65983 21.8967 9.35165 22.347 8.79222C22.7986 8.23089 23.0479 7.48473 23.0485 6.68999C23.0497 5.04927 21.9796 3.71294 20.6632 3.71066C20.6626 3.71066 20.6617 3.71066 20.6611 3.71066C19.3451 3.71066 18.2737 5.04206 18.2722 6.67974C18.271 7.47524 18.5193 8.22368 18.9706 8.78691C19.4213 9.34975 20.0209 9.65983 20.6581 9.65983ZM20.6608 4.83749C20.6614 4.83749 20.662 4.83749 20.6623 4.83749C21.4802 4.83863 22.1444 5.66943 22.1438 6.68885C22.1435 7.18225 21.9887 7.64565 21.7084 7.99407C21.4287 8.34172 21.0572 8.53262 20.6617 8.53262C20.6608 8.53262 20.6596 8.53262 20.6587 8.53262C20.2626 8.53262 19.8905 8.3402 19.6105 7.99103C19.3302 7.6411 19.176 7.17617 19.1766 6.68126C19.1778 5.6645 19.8433 4.83749 20.6608 4.83749Z" fill="currentColor"/>
<path d="M28.4636 27.2151L23.8845 13.8727L25.4446 10.7643C25.4614 10.7309 25.4751 10.6956 25.4851 10.6595C26.0187 9.557 26.3005 8.30796 26.3005 7.03957C26.303 5.16126 25.7192 3.39492 24.6563 2.06617C23.5932 0.736672 22.177 0.00265673 20.6684 0C20.6659 0 20.6638 0 20.6617 0C17.5537 0 15.0216 3.14708 15.0167 7.01983C15.0167 8.30758 15.2995 9.56384 15.8354 10.6595C15.844 10.6865 15.8543 10.7131 15.8668 10.7385L16.7136 12.5098H5.88104C5.69974 12.5098 5.53612 12.6441 5.46512 12.8517L0.536213 27.2151C0.476795 27.389 0.491117 27.589 0.574606 27.7469C0.6584 27.9047 0.800087 28 0.952135 28H28.0486C28.2007 28 28.3424 27.9051 28.4262 27.7469C28.509 27.589 28.5231 27.389 28.4636 27.2151ZM16.6454 10.1502C16.1712 9.21353 15.9208 8.1311 15.9208 7.02097C15.9253 3.76952 18.051 1.12721 20.6611 1.12721C20.6632 1.12721 20.665 1.12721 20.6672 1.12721C21.9335 1.12949 23.1231 1.74547 24.0156 2.86167C24.9077 3.9775 25.398 5.46071 25.3959 7.03805C25.3959 7.03843 25.3959 7.03843 25.3959 7.03881C25.3959 8.13603 25.1439 9.2177 24.6667 10.1665C24.6503 10.1984 24.6372 10.2322 24.6271 10.2671L20.5639 18.3625L17.8922 12.7743C17.8889 12.7675 17.8861 12.7606 17.8825 12.7542L16.6856 10.2508C16.6752 10.2159 16.6618 10.1821 16.6454 10.1502ZM6.17843 13.6366H7.20925C7.27385 15.2439 8.38023 15.8493 9.19593 16.2926C9.62404 16.5252 10.0668 16.7655 10.2057 17.0607C10.4251 17.5268 10.2834 17.8513 9.85378 18.5944C9.46102 19.2734 8.97197 20.1183 9.30653 21.2261C9.82514 22.9439 12.5151 23.4054 15.464 23.7606C15.9994 23.8248 16.4613 23.8806 16.7514 23.942C19.0288 24.4237 19.7936 26.0317 20.0428 26.8743H1.6365L6.17843 13.6366ZM20.9926 26.8732C20.7866 25.9046 19.97 23.4786 16.9025 22.8304C16.5808 22.7625 16.1039 22.7048 15.5512 22.6383C13.917 22.4414 10.5165 22.0319 10.1533 20.8287C9.9973 20.3126 10.2167 19.8936 10.5875 19.2529C10.983 18.5698 11.5242 17.6338 10.9861 16.4903C10.6984 15.8789 10.1183 15.5639 9.55761 15.2591C8.70657 14.7972 8.1776 14.442 8.1194 13.6362H17.2514L20.1659 19.7323C20.2467 19.9012 20.392 20.0055 20.5498 20.0074C20.5514 20.0074 20.5532 20.0074 20.5547 20.0074C20.7107 20.0074 20.8555 19.9076 20.9383 19.7429L23.3004 15.0367L27.3627 26.8732H20.9926Z" fill="currentColor"/>
</svg>
