<svg width="25" height="25" viewBox="0 0 25 25" fill="none" xmlns="http://www.w3.org/2000/svg">
<g clip-path="url(#clip0_132_47)">
<path d="M7.92118 15.6014C7.81496 15.6103 7.70899 15.6149 7.60277 15.6149C7.31217 15.6149 7.02954 15.5728 6.75278 15.5087L0.348845 21.9128C0.0345158 22.2267 0.0345158 22.7365 0.348845 23.0505L2.00625 24.7083C2.32057 25.0222 2.82984 25.0222 3.1433 24.7083L10.84 17.013L9.41361 15.4741L7.92118 15.6014Z" fill="#403C3C"/>
<path d="M24.774 5.34171C24.4735 5.04131 23.9871 5.04131 23.6866 5.34171L19.5365 9.49164C19.1438 9.88391 18.5078 9.88391 18.1151 9.49164C17.7241 9.09967 17.7241 8.46412 18.1151 8.07226L22.2446 3.94361C22.5566 3.63132 22.5566 3.12507 22.2446 2.81206C21.9311 2.50019 21.4251 2.50019 21.1131 2.81206L16.9853 6.94031C16.5926 7.33299 15.9573 7.33299 15.5646 6.94031C15.1727 6.54849 15.1727 5.91248 15.5646 5.52097L19.7137 1.37145C20.0151 1.07059 20.0151 0.583276 19.7137 0.282014C19.4132 -0.0188908 18.9259 -0.0188908 18.6246 0.282014L13.9562 4.95066C12.8338 6.07378 12.4792 7.65028 12.8426 9.08477L15.9721 12.2145C17.4065 12.5765 18.9838 12.2218 20.1049 11.0996L24.7739 6.43124C25.0754 6.13039 25.0754 5.64256 24.774 5.34171Z" fill="#403C3C"/>
<path d="M2.09756 0.703944C1.93759 0.543921 1.72127 0.456177 1.49912 0.456177C1.45185 0.456177 1.40433 0.460209 1.35793 0.467968C1.08766 0.513703 0.855762 0.687202 0.736625 0.934153C-0.630845 3.76061 -0.0593558 7.14269 2.16045 9.36259L6.13173 13.3334C6.52354 13.7256 7.05333 13.9428 7.60277 13.9428C7.66152 13.9428 7.72042 13.9403 7.77918 13.9355L10.0849 13.7387L20.1391 24.585C20.2952 24.7536 20.5139 24.8515 20.7442 24.856C20.749 24.856 20.7539 24.856 20.7589 24.856C20.9841 24.856 21.1997 24.7671 21.3598 24.6082L23.0817 22.8859C23.2408 22.7272 23.3297 22.5117 23.3297 22.2872C23.3297 22.0627 23.2408 21.8471 23.0823 21.6883L2.09756 0.703944Z" fill="#403C3C"/>
</g>
<defs>
<clipPath id="clip0_132_47">
<rect width="25" height="25" fill="white"/>
</clipPath>
</defs>
</svg>
