<svg width="52" height="50" viewBox="0 0 52 50" fill="none" xmlns="http://www.w3.org/2000/svg">
<rect width="52" height="50" rx="11" fill="#D4F7F4"/>
<g clip-path="url(#clip0_101_394)">
<path d="M33.4246 39.2056L32.4541 20.1788H29.7671L28.7966 39.2056C28.7469 40.1815 29.5247 41 30.5019 41H31.7195C32.6964 41 33.4743 40.1814 33.4246 39.2056Z" fill="#2AD5C6"/>
<path d="M34.9495 9C34.4321 9 34.0127 9.41944 34.0127 9.93675V15.2704C34.0127 15.8131 33.5727 16.253 33.03 16.253C32.4873 16.253 32.0474 15.8131 32.0474 15.2704V9.93675C32.0474 9.41944 31.6279 9 31.1106 9C30.5932 9 30.1737 9.41944 30.1737 9.93675V15.2704C30.1737 15.8131 29.7338 16.253 29.1911 16.253C28.6484 16.253 28.2085 15.8131 28.2085 15.2704V9.93675C28.2084 9.41944 27.789 9 27.2717 9C26.7543 9 26.3348 9.41944 26.3348 9.93675V16.8956C26.3348 19.5333 28.473 21.6714 31.1106 21.6714C33.7482 21.6714 35.8863 19.5332 35.8863 16.8956V9.93675C35.8863 9.41944 35.4669 9 34.9495 9Z" fill="#2AD5C6"/>
<path opacity="0.15" d="M30.5862 15.5289V9.16044C30.3374 9.32888 30.1738 9.61369 30.1738 9.93688V15.2704C30.1738 15.8131 29.7338 16.2531 29.1912 16.2531C29.0873 16.2531 28.9874 16.2367 28.8935 16.2069C29.0725 16.3942 29.3241 16.5114 29.6036 16.5114C30.1463 16.5115 30.5862 16.0716 30.5862 15.5289ZM31.8078 40.0211C30.8307 40.0211 30.0528 39.2026 30.1027 38.2268L30.6282 21.6161C30.6481 20.9889 30.3158 20.4029 29.7666 20.0994C28.2943 19.286 27.2972 17.7179 27.2972 15.9168V9.00131C27.2968 9.001 27.2966 9.00069 27.2963 9.00038C26.7676 8.98681 26.3349 9.41131 26.3349 9.93688V16.8958C26.3349 19.0429 27.752 20.8589 29.7018 21.46L28.7966 39.2056C28.7469 40.1815 29.5247 41 30.5018 41H31.7194C32.4114 41 33.003 40.5893 33.272 40.0031C33.1915 40.0147 33.1093 40.0211 33.0255 40.0211H31.8078V40.0211ZM34.0127 9.93675V15.2704C34.0127 15.8131 33.5728 16.253 33.03 16.253C32.9596 16.253 32.891 16.2453 32.8246 16.2311C33.0018 16.4044 33.2439 16.5114 33.5112 16.5114C34.0539 16.5114 34.4939 16.0714 34.4939 15.5288V9.11856C34.207 9.27875 34.0127 9.58488 34.0127 9.93675Z" fill="#F8F8F8"/>
<path d="M21.0755 39.2056L21.0777 20.1788H18.1158L17.1453 39.2056C17.0956 40.1815 17.8733 41 18.8506 41H19.3703C20.3474 41 21.1252 40.1814 21.0755 39.2056Z" fill="#2AD5C6"/>
<path d="M20.2948 9.53863C17.6773 11.3395 16.1137 14.3132 16.1137 17.4904V22.3465C16.1137 23.8119 17.3016 24.9998 18.767 24.9998H21.0777V9.95032C21.0777 9.54788 20.6263 9.31057 20.2948 9.53863Z" fill="#2AD5C6"/>
<path opacity="0.15" d="M20.3995 40.1064H19.8798C18.9026 40.1064 18.1248 39.2878 18.1745 38.312L18.907 23.9529C17.8791 23.5872 17.143 22.6062 17.143 21.4529V16.5967C17.143 14.0169 18.1739 11.5714 19.9628 9.77875C17.546 11.5971 16.1136 14.4501 16.1136 17.4904V22.3465C16.1136 23.4999 16.8497 24.4809 17.8776 24.8466L17.1453 39.2056C17.0955 40.1815 17.8733 41 18.8505 41H19.3703C20.0523 41 20.6368 40.601 20.911 40.0283C20.7496 40.0788 20.578 40.1064 20.3995 40.1064Z" fill="#F8F8F8"/>
</g>
<defs>
<clipPath id="clip0_101_394">
<rect width="32" height="32" fill="white" transform="translate(10 9)"/>
</clipPath>
</defs>
</svg>
