<svg width="40" height="40" viewBox="0 0 40 40" fill="none" xmlns="http://www.w3.org/2000/svg">
<g filter="url(#filter0_d_104_49)">
<path d="M4 0H29C34.5228 0 39 4.47715 39 10V35H14C8.47715 35 4 30.5228 4 25V0Z" fill="white"/>
</g>
<g clip-path="url(#clip0_104_49)">
<path d="M16.9212 20.6014C16.815 20.6103 16.709 20.6149 16.6028 20.6149C16.3122 20.6149 16.0295 20.5728 15.7528 20.5087L9.34885 26.9128C9.03452 27.2267 9.03452 27.7365 9.34885 28.0505L11.0062 29.7083C11.3206 30.0222 11.8298 30.0222 12.1433 29.7083L19.84 22.013L18.4136 20.4741L16.9212 20.6014Z" fill="#403C3C"/>
<path d="M33.774 10.3417C33.4735 10.0413 32.9871 10.0413 32.6866 10.3417L28.5365 14.4916C28.1438 14.8839 27.5078 14.8839 27.1151 14.4916C26.7241 14.0997 26.7241 13.4641 27.1151 13.0723L31.2446 8.94361C31.5566 8.63132 31.5566 8.12507 31.2446 7.81206C30.9311 7.50019 30.4251 7.50019 30.1131 7.81206L25.9853 11.9403C25.5926 12.333 24.9573 12.333 24.5646 11.9403C24.1727 11.5485 24.1727 10.9125 24.5646 10.521L28.7137 6.37145C29.0151 6.07059 29.0151 5.58328 28.7137 5.28201C28.4132 4.98111 27.9259 4.98111 27.6246 5.28201L22.9562 9.95066C21.8338 11.0738 21.4792 12.6503 21.8426 14.0848L24.9721 17.2145C26.4065 17.5765 27.9838 17.2218 29.1049 16.0996L33.7739 11.4312C34.0754 11.1304 34.0754 10.6426 33.774 10.3417Z" fill="#403C3C"/>
<path d="M11.0976 5.70394C10.9376 5.54392 10.7213 5.45618 10.4991 5.45618C10.4519 5.45618 10.4043 5.46021 10.3579 5.46797C10.0877 5.5137 9.85576 5.6872 9.73663 5.93415C8.36915 8.76061 8.94064 12.1427 11.1604 14.3626L15.1317 18.3334C15.5235 18.7256 16.0533 18.9428 16.6028 18.9428C16.6615 18.9428 16.7204 18.9403 16.7792 18.9355L19.0849 18.7387L29.1391 29.585C29.2952 29.7536 29.5139 29.8515 29.7442 29.856C29.749 29.856 29.7539 29.856 29.7589 29.856C29.9841 29.856 30.1997 29.7671 30.3598 29.6082L32.0817 27.8859C32.2408 27.7272 32.3297 27.5117 32.3297 27.2872C32.3297 27.0627 32.2408 26.8471 32.0823 26.6883L11.0976 5.70394Z" fill="#403C3C"/>
</g>
<defs>
<filter id="filter0_d_104_49" x="0" y="0" width="43" height="43" filterUnits="userSpaceOnUse" color-interpolation-filters="sRGB">
<feFlood flood-opacity="0" result="BackgroundImageFix"/>
<feColorMatrix in="SourceAlpha" type="matrix" values="0 0 0 0 0 0 0 0 0 0 0 0 0 0 0 0 0 0 127 0" result="hardAlpha"/>
<feOffset dy="4"/>
<feGaussianBlur stdDeviation="2"/>
<feComposite in2="hardAlpha" operator="out"/>
<feColorMatrix type="matrix" values="0 0 0 0 0 0 0 0 0 0 0 0 0 0 0 0 0 0 0.25 0"/>
<feBlend mode="normal" in2="BackgroundImageFix" result="effect1_dropShadow_104_49"/>
<feBlend mode="normal" in="SourceGraphic" in2="effect1_dropShadow_104_49" result="shape"/>
</filter>
<clipPath id="clip0_104_49">
<rect width="25" height="25" fill="white" transform="translate(9 5)"/>
</clipPath>
</defs>
</svg>
